<svg xmlns="http://www.w3.org/2000/svg" width="442" height="287" viewBox="0 0 442 287" fill="none"><path d="M12.424 269.48H27.264L27.656 270.6H11.864L12.424 269.48ZM40.144 285.328C40.2933 285.328 40.368 285.44 40.368 285.664C40.368 285.888 40.2933 286 40.144 286C39.4347 286 38.3333 285.963 36.84 285.888C35.3467 285.813 34.264 285.776 33.592 285.776C32.7707 285.776 31.7253 285.813 30.456 285.888C29.2613 285.963 28.3467 286 27.712 286C27.5627 286 27.488 285.888 27.488 285.664C27.488 285.44 27.5627 285.328 27.712 285.328C29.1307 285.328 30.1387 285.197 30.736 284.936C31.3707 284.675 31.688 284.208 31.688 283.536C31.688 282.976 31.464 282.192 31.016 281.184L18.584 254.92L19.984 253.184L9.12 278.888C8.59733 280.157 8.336 281.203 8.336 282.024C8.336 284.227 10.1653 285.328 13.824 285.328C14.0107 285.328 14.104 285.44 14.104 285.664C14.104 285.888 14.0107 286 13.824 286C13.152 286 12.1813 285.963 10.912 285.888C9.49333 285.813 8.26133 285.776 7.216 285.776C6.24533 285.776 5.12533 285.813 3.856 285.888C2.736 285.963 1.80267 286 1.056 286C0.869333 286 0.776 285.888 0.776 285.664C0.776 285.44 0.869333 285.328 1.056 285.328C2.10133 285.328 2.97867 285.141 3.688 284.768C4.43467 284.357 5.12533 283.667 5.76 282.696C6.432 281.688 7.16 280.251 7.944 278.384L19.76 250.496C19.8347 250.384 19.9653 250.328 20.152 250.328C20.3387 250.328 20.4507 250.384 20.488 250.496L33.704 278.328C34.9733 281.091 36.056 282.957 36.952 283.928C37.848 284.861 38.912 285.328 40.144 285.328ZM55.6083 286C55.5336 286 55.4963 285.888 55.4963 285.664C55.4963 285.44 55.5336 285.328 55.6083 285.328C57.027 285.328 58.0536 285.235 58.6883 285.048C59.3603 284.861 59.8083 284.507 60.0323 283.984C60.2936 283.424 60.4243 282.584 60.4243 281.464V255.536C60.4243 254.416 60.2936 253.595 60.0323 253.072C59.8083 252.549 59.3603 252.195 58.6883 252.008C58.0536 251.784 57.027 251.672 55.6083 251.672C55.5336 251.672 55.4963 251.56 55.4963 251.336C55.4963 251.112 55.5336 251 55.6083 251H78.1203C78.4563 251 78.6243 251.168 78.6243 251.504L78.7363 258.392C78.7363 258.504 78.6243 258.579 78.4003 258.616C78.2136 258.616 78.1203 258.56 78.1203 258.448C78.0083 256.469 77.411 254.939 76.3283 253.856C75.2456 252.736 73.8083 252.176 72.0163 252.176H68.6003C67.2936 252.176 66.323 252.288 65.6883 252.512C65.0536 252.699 64.6056 253.035 64.3443 253.52C64.1203 254.005 64.0083 254.771 64.0083 255.816V281.24C64.0083 282.248 64.1203 283.013 64.3443 283.536C64.6056 284.021 65.035 284.357 65.6323 284.544C66.2296 284.731 67.163 284.824 68.4323 284.824H72.9123C74.7043 284.824 76.1976 284.189 77.3923 282.92C78.587 281.651 79.3896 279.896 79.8003 277.656C79.8003 277.581 79.875 277.544 80.0243 277.544C80.1363 277.544 80.2296 277.581 80.3043 277.656C80.4163 277.693 80.4723 277.731 80.4723 277.768C80.1363 280.12 79.9683 282.584 79.9683 285.16C79.9683 285.459 79.8936 285.683 79.7443 285.832C79.6323 285.944 79.4083 286 79.0723 286H55.6083ZM75.9363 272.952C75.9363 271.309 75.5256 270.133 74.7043 269.424C73.9203 268.715 72.595 268.36 70.7283 268.36H62.3283V267.184H70.8963C72.6883 267.184 73.9576 266.885 74.7043 266.288C75.4883 265.691 75.8803 264.683 75.8803 263.264C75.8803 263.189 75.9923 263.152 76.2163 263.152C76.4403 263.152 76.5523 263.189 76.5523 263.264L76.4963 267.8C76.4963 268.883 76.515 269.704 76.5523 270.264L76.6083 272.952C76.6083 273.027 76.4963 273.064 76.2723 273.064C76.0483 273.064 75.9363 273.027 75.9363 272.952ZM104.278 257.552C104.278 259.008 104.633 260.277 105.342 261.36C106.052 262.443 106.91 263.357 107.918 264.104C108.926 264.813 110.345 265.728 112.174 266.848C114.116 268.005 115.628 268.976 116.71 269.76C117.793 270.544 118.708 271.552 119.454 272.784C120.238 273.979 120.63 275.416 120.63 277.096C120.63 278.888 120.182 280.512 119.286 281.968C118.39 283.424 117.065 284.581 115.31 285.44C113.593 286.261 111.521 286.672 109.094 286.672C106.22 286.672 103.588 286.019 101.198 284.712C101.012 284.6 100.881 284.469 100.806 284.32C100.769 284.171 100.732 283.947 100.694 283.648L99.9664 276.032C99.9291 275.883 100.004 275.789 100.19 275.752C100.414 275.715 100.545 275.771 100.582 275.92C101.142 278.571 102.244 280.885 103.886 282.864C105.529 284.805 107.694 285.776 110.382 285.776C112.249 285.776 113.817 285.272 115.086 284.264C116.393 283.219 117.046 281.576 117.046 279.336C117.046 277.656 116.673 276.2 115.926 274.968C115.18 273.736 114.265 272.728 113.182 271.944C112.137 271.123 110.7 270.171 108.87 269.088C107.078 268.005 105.66 267.072 104.614 266.288C103.606 265.504 102.748 264.515 102.038 263.32C101.329 262.125 100.974 260.725 100.974 259.12C100.974 257.253 101.46 255.667 102.43 254.36C103.438 253.016 104.726 252.027 106.294 251.392C107.9 250.72 109.598 250.384 111.39 250.384C113.593 250.384 115.777 250.832 117.942 251.728C118.502 251.915 118.782 252.232 118.782 252.68L119.174 259.064C119.174 259.251 119.062 259.344 118.838 259.344C118.652 259.344 118.54 259.269 118.502 259.12C118.241 257.179 117.457 255.387 116.15 253.744C114.844 252.064 112.958 251.224 110.494 251.224C108.404 251.224 106.836 251.84 105.79 253.072C104.782 254.267 104.278 255.76 104.278 257.552ZM147.074 252.008C144.76 252.008 143.005 252.605 141.81 253.8C140.653 254.995 139.813 257.029 139.29 259.904C139.29 259.979 139.178 260.016 138.954 260.016C138.768 260.016 138.674 259.979 138.674 259.904C138.824 258.56 138.992 256.805 139.178 254.64C139.365 252.475 139.458 250.851 139.458 249.768C139.458 249.581 139.552 249.488 139.738 249.488C139.962 249.488 140.074 249.581 140.074 249.768C140.074 250.589 141.082 251 143.098 251C146.309 251.112 150.061 251.168 154.354 251.168C156.557 251.168 158.89 251.131 161.354 251.056L165.162 251C166.506 251 167.496 250.907 168.13 250.72C168.802 250.533 169.232 250.16 169.418 249.6C169.456 249.451 169.568 249.376 169.754 249.376C169.941 249.376 170.034 249.451 170.034 249.6C169.922 250.683 169.81 252.325 169.698 254.528C169.586 256.731 169.53 258.523 169.53 259.904C169.53 259.979 169.418 260.016 169.194 260.016C168.97 260.016 168.858 259.979 168.858 259.904C168.746 256.992 168.149 254.957 167.066 253.8C165.984 252.605 164.192 252.008 161.69 252.008C160.01 252.008 158.816 252.083 158.106 252.232C157.397 252.381 156.912 252.699 156.65 253.184C156.389 253.669 156.258 254.491 156.258 255.648V281.464C156.258 282.621 156.389 283.461 156.65 283.984C156.912 284.507 157.416 284.861 158.162 285.048C158.909 285.235 160.085 285.328 161.69 285.328C161.802 285.328 161.858 285.44 161.858 285.664C161.858 285.888 161.802 286 161.69 286C160.458 286 159.469 285.981 158.722 285.944L154.354 285.888L150.154 285.944C149.408 285.981 148.381 286 147.074 286C147 286 146.962 285.888 146.962 285.664C146.962 285.44 147 285.328 147.074 285.328C148.68 285.328 149.856 285.235 150.602 285.048C151.349 284.861 151.853 284.507 152.114 283.984C152.413 283.424 152.562 282.584 152.562 281.464V255.536C152.562 254.379 152.432 253.576 152.17 253.128C151.909 252.643 151.424 252.344 150.714 252.232C150.005 252.083 148.792 252.008 147.074 252.008ZM216.894 255.648C216.894 254.528 216.764 253.707 216.502 253.184C216.278 252.624 215.83 252.232 215.158 252.008C214.486 251.784 213.422 251.672 211.966 251.672C211.854 251.672 211.798 251.56 211.798 251.336C211.798 251.112 211.854 251 211.966 251L214.654 251.056C216.297 251.131 217.66 251.168 218.742 251.168C219.75 251.168 221.038 251.131 222.606 251.056L225.35 251C225.462 251 225.518 251.112 225.518 251.336C225.518 251.56 225.462 251.672 225.35 251.672C223.932 251.672 222.886 251.784 222.214 252.008C221.542 252.195 221.076 252.549 220.814 253.072C220.59 253.595 220.478 254.416 220.478 255.536V281.464C220.478 282.584 220.59 283.424 220.814 283.984C221.076 284.507 221.542 284.861 222.214 285.048C222.886 285.235 223.932 285.328 225.35 285.328C225.462 285.328 225.518 285.44 225.518 285.664C225.518 285.888 225.462 286 225.35 286C224.193 286 223.278 285.981 222.606 285.944L218.742 285.888L214.654 285.944C213.982 285.981 213.086 286 211.966 286C211.854 286 211.798 285.888 211.798 285.664C211.798 285.44 211.854 285.328 211.966 285.328C213.422 285.328 214.486 285.235 215.158 285.048C215.83 284.861 216.278 284.507 216.502 283.984C216.764 283.424 216.894 282.584 216.894 281.464V255.648ZM193.43 267.184H218.462V268.36H193.43V267.184ZM191.806 255.536C191.806 254.416 191.676 253.595 191.414 253.072C191.19 252.549 190.742 252.195 190.07 252.008C189.398 251.784 188.353 251.672 186.934 251.672C186.86 251.672 186.822 251.56 186.822 251.336C186.822 251.112 186.86 251 186.934 251L189.79 251.056C191.358 251.131 192.609 251.168 193.542 251.168C194.625 251.168 195.988 251.131 197.63 251.056L200.318 251C200.393 251 200.43 251.112 200.43 251.336C200.43 251.56 200.393 251.672 200.318 251.672C198.9 251.672 197.836 251.784 197.126 252.008C196.454 252.232 195.988 252.624 195.726 253.184C195.502 253.707 195.39 254.528 195.39 255.648V281.464C195.39 282.584 195.502 283.424 195.726 283.984C195.988 284.507 196.454 284.861 197.126 285.048C197.798 285.235 198.862 285.328 200.318 285.328C200.393 285.328 200.43 285.44 200.43 285.664C200.43 285.888 200.393 286 200.318 286C199.161 286 198.246 285.981 197.574 285.944L193.542 285.888L189.678 285.944C189.006 285.981 188.073 286 186.878 286C186.804 286 186.766 285.888 186.766 285.664C186.766 285.44 186.804 285.328 186.878 285.328C188.297 285.328 189.342 285.235 190.014 285.048C190.724 284.861 191.19 284.507 191.414 283.984C191.676 283.424 191.806 282.584 191.806 281.464V255.536ZM242.699 286C242.624 286 242.587 285.888 242.587 285.664C242.587 285.44 242.624 285.328 242.699 285.328C244.117 285.328 245.144 285.235 245.779 285.048C246.451 284.861 246.899 284.507 247.123 283.984C247.384 283.424 247.515 282.584 247.515 281.464V255.536C247.515 254.416 247.384 253.595 247.123 253.072C246.899 252.549 246.451 252.195 245.779 252.008C245.144 251.784 244.117 251.672 242.699 251.672C242.624 251.672 242.587 251.56 242.587 251.336C242.587 251.112 242.624 251 242.699 251H265.211C265.547 251 265.715 251.168 265.715 251.504L265.827 258.392C265.827 258.504 265.715 258.579 265.491 258.616C265.304 258.616 265.211 258.56 265.211 258.448C265.099 256.469 264.501 254.939 263.419 253.856C262.336 252.736 260.899 252.176 259.107 252.176H255.691C254.384 252.176 253.413 252.288 252.779 252.512C252.144 252.699 251.696 253.035 251.435 253.52C251.211 254.005 251.099 254.771 251.099 255.816V281.24C251.099 282.248 251.211 283.013 251.435 283.536C251.696 284.021 252.125 284.357 252.723 284.544C253.32 284.731 254.253 284.824 255.523 284.824H260.003C261.795 284.824 263.288 284.189 264.483 282.92C265.677 281.651 266.48 279.896 266.891 277.656C266.891 277.581 266.965 277.544 267.115 277.544C267.227 277.544 267.32 277.581 267.395 277.656C267.507 277.693 267.563 277.731 267.563 277.768C267.227 280.12 267.059 282.584 267.059 285.16C267.059 285.459 266.984 285.683 266.835 285.832C266.723 285.944 266.499 286 266.163 286H242.699ZM263.027 272.952C263.027 271.309 262.616 270.133 261.795 269.424C261.011 268.715 259.685 268.36 257.819 268.36H249.419V267.184H257.987C259.779 267.184 261.048 266.885 261.795 266.288C262.579 265.691 262.971 264.683 262.971 263.264C262.971 263.189 263.083 263.152 263.307 263.152C263.531 263.152 263.643 263.189 263.643 263.264L263.587 267.8C263.587 268.883 263.605 269.704 263.643 270.264L263.699 272.952C263.699 273.027 263.587 273.064 263.363 273.064C263.139 273.064 263.027 273.027 263.027 272.952ZM293.777 252.008C291.462 252.008 289.707 252.605 288.513 253.8C287.355 254.995 286.515 257.029 285.993 259.904C285.993 259.979 285.881 260.016 285.657 260.016C285.47 260.016 285.377 259.979 285.377 259.904C285.526 258.56 285.694 256.805 285.881 254.64C286.067 252.475 286.161 250.851 286.161 249.768C286.161 249.581 286.254 249.488 286.441 249.488C286.665 249.488 286.777 249.581 286.777 249.768C286.777 250.589 287.785 251 289.801 251C293.011 251.112 296.763 251.168 301.057 251.168C303.259 251.168 305.593 251.131 308.057 251.056L311.865 251C313.209 251 314.198 250.907 314.833 250.72C315.505 250.533 315.934 250.16 316.121 249.6C316.158 249.451 316.27 249.376 316.457 249.376C316.643 249.376 316.737 249.451 316.737 249.6C316.625 250.683 316.513 252.325 316.401 254.528C316.289 256.731 316.233 258.523 316.233 259.904C316.233 259.979 316.121 260.016 315.897 260.016C315.673 260.016 315.561 259.979 315.561 259.904C315.449 256.992 314.851 254.957 313.769 253.8C312.686 252.605 310.894 252.008 308.393 252.008C306.713 252.008 305.518 252.083 304.809 252.232C304.099 252.381 303.614 252.699 303.353 253.184C303.091 253.669 302.961 254.491 302.961 255.648V281.464C302.961 282.621 303.091 283.461 303.353 283.984C303.614 284.507 304.118 284.861 304.865 285.048C305.611 285.235 306.787 285.328 308.393 285.328C308.505 285.328 308.561 285.44 308.561 285.664C308.561 285.888 308.505 286 308.393 286C307.161 286 306.171 285.981 305.425 285.944L301.057 285.888L296.857 285.944C296.11 285.981 295.083 286 293.777 286C293.702 286 293.665 285.888 293.665 285.664C293.665 285.44 293.702 285.328 293.777 285.328C295.382 285.328 296.558 285.235 297.305 285.048C298.051 284.861 298.555 284.507 298.817 283.984C299.115 283.424 299.265 282.584 299.265 281.464V255.536C299.265 254.379 299.134 253.576 298.873 253.128C298.611 252.643 298.126 252.344 297.417 252.232C296.707 252.083 295.494 252.008 293.777 252.008ZM342.765 281.464C342.765 282.621 342.877 283.461 343.101 283.984C343.325 284.507 343.754 284.861 344.389 285.048C345.061 285.235 346.106 285.328 347.525 285.328C347.637 285.328 347.693 285.44 347.693 285.664C347.693 285.888 347.637 286 347.525 286C346.405 286 345.509 285.981 344.837 285.944L340.861 285.888L336.997 285.944C336.325 285.981 335.41 286 334.253 286C334.141 286 334.085 285.888 334.085 285.664C334.085 285.44 334.141 285.328 334.253 285.328C335.672 285.328 336.698 285.235 337.333 285.048C338.005 284.861 338.453 284.507 338.677 283.984C338.938 283.424 339.069 282.584 339.069 281.464V255.536C339.069 254.416 338.938 253.595 338.677 253.072C338.453 252.549 338.005 252.195 337.333 252.008C336.698 251.784 335.672 251.672 334.253 251.672C334.141 251.672 334.085 251.56 334.085 251.336C334.085 251.112 334.141 251 334.253 251L336.997 251.056C338.565 251.131 339.853 251.168 340.861 251.168C341.981 251.168 343.325 251.131 344.893 251.056L347.525 251C347.637 251 347.693 251.112 347.693 251.336C347.693 251.56 347.637 251.672 347.525 251.672C346.144 251.672 345.117 251.784 344.445 252.008C343.773 252.232 343.325 252.624 343.101 253.184C342.877 253.707 342.765 254.528 342.765 255.648V281.464ZM386.111 250.384C388.463 250.384 390.441 250.552 392.047 250.888C393.652 251.224 395.257 251.803 396.863 252.624C397.124 252.773 397.273 252.904 397.311 253.016C397.348 253.128 397.404 253.408 397.479 253.856L398.151 260.52C398.151 260.632 398.039 260.707 397.815 260.744C397.628 260.744 397.516 260.688 397.479 260.576C395.761 254.341 391.916 251.224 385.943 251.224C382.807 251.224 380.025 251.915 377.599 253.296C375.209 254.677 373.361 256.656 372.055 259.232C370.748 261.771 370.095 264.739 370.095 268.136C370.095 271.384 370.823 274.371 372.279 277.096C373.735 279.784 375.676 281.912 378.103 283.48C380.567 285.048 383.236 285.832 386.111 285.832C389.172 285.832 391.655 285.085 393.559 283.592C395.463 282.099 396.919 279.821 397.927 276.76C397.927 276.685 398.02 276.648 398.207 276.648C398.468 276.648 398.599 276.704 398.599 276.816L398.039 282.976C398.001 283.424 397.945 283.704 397.871 283.816C397.796 283.928 397.647 284.059 397.423 284.208C395.481 285.141 393.652 285.795 391.935 286.168C390.255 286.541 388.313 286.728 386.111 286.728C382.191 286.728 378.681 285.963 375.583 284.432C372.521 282.864 370.132 280.68 368.415 277.88C366.697 275.08 365.839 271.869 365.839 268.248C365.839 264.739 366.716 261.64 368.471 258.952C370.225 256.227 372.633 254.117 375.695 252.624C378.793 251.131 382.265 250.384 386.111 250.384ZM422.485 257.552C422.485 259.008 422.84 260.277 423.549 261.36C424.259 262.443 425.117 263.357 426.125 264.104C427.133 264.813 428.552 265.728 430.381 266.848C432.323 268.005 433.835 268.976 434.917 269.76C436 270.544 436.915 271.552 437.661 272.784C438.445 273.979 438.837 275.416 438.837 277.096C438.837 278.888 438.389 280.512 437.493 281.968C436.597 283.424 435.272 284.581 433.517 285.44C431.8 286.261 429.728 286.672 427.301 286.672C424.427 286.672 421.795 286.019 419.405 284.712C419.219 284.6 419.088 284.469 419.013 284.32C418.976 284.171 418.939 283.947 418.901 283.648L418.173 276.032C418.136 275.883 418.211 275.789 418.397 275.752C418.621 275.715 418.752 275.771 418.789 275.92C419.349 278.571 420.451 280.885 422.093 282.864C423.736 284.805 425.901 285.776 428.589 285.776C430.456 285.776 432.024 285.272 433.293 284.264C434.6 283.219 435.253 281.576 435.253 279.336C435.253 277.656 434.88 276.2 434.133 274.968C433.387 273.736 432.472 272.728 431.389 271.944C430.344 271.123 428.907 270.171 427.077 269.088C425.285 268.005 423.867 267.072 422.821 266.288C421.813 265.504 420.955 264.515 420.245 263.32C419.536 262.125 419.181 260.725 419.181 259.12C419.181 257.253 419.667 255.667 420.637 254.36C421.645 253.016 422.933 252.027 424.501 251.392C426.107 250.72 427.805 250.384 429.597 250.384C431.8 250.384 433.984 250.832 436.149 251.728C436.709 251.915 436.989 252.232 436.989 252.68L437.381 259.064C437.381 259.251 437.269 259.344 437.045 259.344C436.859 259.344 436.747 259.269 436.709 259.12C436.448 257.179 435.664 255.387 434.357 253.744C433.051 252.064 431.165 251.224 428.701 251.224C426.611 251.224 425.043 251.84 423.997 253.072C422.989 254.267 422.485 255.76 422.485 257.552Z" fill="white"></path><path d="M245.472 110.025V109.448H288.795C298.037 109.448 305.883 107.33 312.334 103.095C318.784 98.8592 323.694 92.8911 327.064 85.1903C330.433 77.3932 332.118 68.2485 332.118 57.7561C332.118 47.2638 330.433 38.0709 327.064 30.1776C323.694 22.188 318.784 15.9792 312.334 11.5512C305.883 7.12326 298.037 4.90928 288.795 4.90928L225.11 4.62051L288.795 4.33171C303.332 4.33171 315.992 6.20879 326.775 9.96294C337.654 13.6208 346.078 19.3964 352.047 27.2898C358.016 35.0868 361 45.2423 361 57.7561C361 70.2699 358.208 80.3773 352.624 88.0781C347.04 95.6826 338.857 101.266 328.074 104.827C317.388 108.293 304.295 110.025 288.795 110.025H245.472ZM225.11 220.628V4.62051H252.692V220.628H225.11ZM356.741 222C348.365 222 344.633 220.773 339.916 217.596C335.295 214.42 331.925 210.184 329.807 204.89C327.689 199.499 326.341 193.483 325.764 186.841C325.282 180.199 324.994 173.316 324.897 166.193C324.801 159.07 324.416 152.187 323.742 145.545C323.068 138.903 321.576 132.935 319.265 127.641C316.955 122.25 313.248 117.967 308.146 114.79C303.14 111.614 296.208 110.025 287.351 110.025H245.472V109.448H293.127C307.279 109.448 318.495 111.469 326.775 115.512C335.151 119.555 341.36 124.898 345.404 131.54C349.543 138.085 352.287 145.353 353.635 153.342C354.983 161.236 355.657 169.177 355.657 177.167C355.753 185.06 355.898 192.328 356.09 198.97C356.283 205.515 357.102 216.946 357.102 220.917C357.102 220.917 357.102 221.639 357.102 222H356.741Z" fill="white"></path><path d="M183.087 150.743L184.287 150.166H198.539V150.743H183.087ZM159.404 0L235.797 220.34L252.404 220.195V220.34L204.171 220.917V220.34L145.829 39.5629L82.5773 220.34H82L158.826 0H159.404Z" fill="white"></path></svg>