<svg xmlns="http://www.w3.org/2000/svg" xmlns:xlink="http://www.w3.org/1999/xlink" id="Layer_1" x="0px" y="0px" viewBox="0 0 442 287" style="enable-background:new 0 0 442 287;" xml:space="preserve"><style type="text/css">	.st0{fill:#B4998B;}	.st1{fill:#B49B8D;}</style><path class="st0" d="M12.4,269.5h14.8l0.4,1.1H11.9L12.4,269.5z M40.1,285.3c0.1,0,0.2,0.1,0.2,0.3s-0.1,0.3-0.2,0.3  c-0.7,0-1.8,0-3.3-0.1s-2.6-0.1-3.2-0.1c-0.8,0-1.9,0-3.1,0.1c-1.2,0.1-2.1,0.1-2.7,0.1c-0.1,0-0.2-0.1-0.2-0.3s0.1-0.3,0.2-0.3  c1.4,0,2.4-0.1,3-0.4c0.6-0.3,1-0.7,1-1.4c0-0.6-0.2-1.3-0.7-2.4l-12.4-26.3l1.4-1.7L9.1,278.9c-0.5,1.3-0.8,2.3-0.8,3.1  c0,2.2,1.8,3.3,5.5,3.3c0.2,0,0.3,0.1,0.3,0.3S14,286,13.8,286c-0.7,0-1.6,0-2.9-0.1c-1.4-0.1-2.7-0.1-3.7-0.1c-1,0-2.1,0-3.4,0.1  C2.7,286,1.8,286,1.1,286c-0.2,0-0.3-0.1-0.3-0.3s0.1-0.3,0.3-0.3c1,0,1.9-0.2,2.6-0.6c0.7-0.4,1.4-1.1,2.1-2.1  c0.7-1,1.4-2.4,2.2-4.3l11.8-27.9c0.1-0.1,0.2-0.2,0.4-0.2c0.2,0,0.3,0.1,0.3,0.2l13.2,27.8c1.3,2.8,2.4,4.6,3.2,5.6  C37.8,284.9,38.9,285.3,40.1,285.3z M55.6,286c-0.1,0-0.1-0.1-0.1-0.3s0-0.3,0.1-0.3c1.4,0,2.4-0.1,3.1-0.3c0.7-0.2,1.1-0.5,1.3-1.1  c0.3-0.6,0.4-1.4,0.4-2.5v-25.9c0-1.1-0.1-1.9-0.4-2.5c-0.2-0.5-0.7-0.9-1.3-1.1c-0.6-0.2-1.7-0.3-3.1-0.3c-0.1,0-0.1-0.1-0.1-0.3  s0-0.3,0.1-0.3h22.5c0.3,0,0.5,0.2,0.5,0.5l0.1,6.9c0,0.1-0.1,0.2-0.3,0.2c-0.2,0-0.3-0.1-0.3-0.2c-0.1-2-0.7-3.5-1.8-4.6  c-1.1-1.1-2.5-1.7-4.3-1.7h-3.4c-1.3,0-2.3,0.1-2.9,0.3c-0.6,0.2-1.1,0.5-1.3,1c-0.2,0.5-0.3,1.3-0.3,2.3v25.4c0,1,0.1,1.8,0.3,2.3  c0.3,0.5,0.7,0.8,1.3,1c0.6,0.2,1.5,0.3,2.8,0.3h4.5c1.8,0,3.3-0.6,4.5-1.9c1.2-1.3,2-3,2.4-5.3c0-0.1,0.1-0.1,0.2-0.1  c0.1,0,0.2,0,0.3,0.1c0.1,0,0.2,0.1,0.2,0.1c-0.3,2.4-0.5,4.8-0.5,7.4c0,0.3-0.1,0.5-0.2,0.7c-0.1,0.1-0.3,0.2-0.7,0.2H55.6z   M75.9,273c0-1.6-0.4-2.8-1.2-3.5c-0.8-0.7-2.1-1.1-4-1.1h-8.4v-1.2h8.6c1.8,0,3.1-0.3,3.8-0.9c0.8-0.6,1.2-1.6,1.2-3  c0-0.1,0.1-0.1,0.3-0.1s0.3,0,0.3,0.1l-0.1,4.5c0,1.1,0,1.9,0.1,2.5l0.1,2.7c0,0.1-0.1,0.1-0.3,0.1S75.9,273,75.9,273z M104.3,257.6  c0,1.5,0.4,2.7,1.1,3.8c0.7,1.1,1.6,2,2.6,2.7c1,0.7,2.4,1.6,4.3,2.7c1.9,1.2,3.5,2.1,4.5,2.9c1.1,0.8,2,1.8,2.7,3  c0.8,1.2,1.2,2.6,1.2,4.3c0,1.8-0.4,3.4-1.3,4.9c-0.9,1.5-2.2,2.6-4,3.5c-1.7,0.8-3.8,1.2-6.2,1.2c-2.9,0-5.5-0.7-7.9-2  c-0.2-0.1-0.3-0.2-0.4-0.4c0-0.1-0.1-0.4-0.1-0.7L100,276c0-0.1,0-0.2,0.2-0.3c0.2,0,0.4,0,0.4,0.2c0.6,2.7,1.7,5,3.3,6.9  c1.6,1.9,3.8,2.9,6.5,2.9c1.9,0,3.4-0.5,4.7-1.5c1.3-1,2-2.7,2-4.9c0-1.7-0.4-3.1-1.1-4.4c-0.7-1.2-1.7-2.2-2.7-3  c-1-0.8-2.5-1.8-4.3-2.9c-1.8-1.1-3.2-2-4.3-2.8c-1-0.8-1.9-1.8-2.6-3c-0.7-1.2-1.1-2.6-1.1-4.2c0-1.9,0.5-3.5,1.5-4.8  c1-1.3,2.3-2.3,3.9-3c1.6-0.7,3.3-1,5.1-1c2.2,0,4.4,0.4,6.6,1.3c0.6,0.2,0.8,0.5,0.8,1l0.4,6.4c0,0.2-0.1,0.3-0.3,0.3  c-0.2,0-0.3-0.1-0.3-0.2c-0.3-1.9-1-3.7-2.4-5.4c-1.3-1.7-3.2-2.5-5.7-2.5c-2.1,0-3.7,0.6-4.7,1.8  C104.8,254.3,104.3,255.8,104.3,257.6z M147.1,252c-2.3,0-4.1,0.6-5.3,1.8c-1.2,1.2-2,3.2-2.5,6.1c0,0.1-0.1,0.1-0.3,0.1  c-0.2,0-0.3,0-0.3-0.1c0.2-1.3,0.3-3.1,0.5-5.3c0.2-2.2,0.3-3.8,0.3-4.9c0-0.2,0.1-0.3,0.3-0.3c0.2,0,0.3,0.1,0.3,0.3  c0,0.8,1,1.2,3,1.2c3.2,0.1,7,0.2,11.3,0.2c2.2,0,4.5,0,7-0.1l3.8-0.1c1.3,0,2.3-0.1,3-0.3c0.7-0.2,1.1-0.6,1.3-1.1  c0-0.1,0.1-0.2,0.3-0.2c0.2,0,0.3,0.1,0.3,0.2c-0.1,1.1-0.2,2.7-0.3,4.9c-0.1,2.2-0.2,4-0.2,5.4c0,0.1-0.1,0.1-0.3,0.1  s-0.3,0-0.3-0.1c-0.1-2.9-0.7-4.9-1.8-6.1c-1.1-1.2-2.9-1.8-5.4-1.8c-1.7,0-2.9,0.1-3.6,0.2c-0.7,0.1-1.2,0.5-1.5,1  c-0.3,0.5-0.4,1.3-0.4,2.5v25.8c0,1.2,0.1,2,0.4,2.5c0.3,0.5,0.8,0.9,1.5,1.1c0.7,0.2,1.9,0.3,3.5,0.3c0.1,0,0.2,0.1,0.2,0.3  s-0.1,0.3-0.2,0.3c-1.2,0-2.2,0-3-0.1l-4.4-0.1l-4.2,0.1c-0.7,0-1.8,0.1-3.1,0.1c-0.1,0-0.1-0.1-0.1-0.3s0-0.3,0.1-0.3  c1.6,0,2.8-0.1,3.5-0.3c0.7-0.2,1.3-0.5,1.5-1.1c0.3-0.6,0.4-1.4,0.4-2.5v-25.9c0-1.2-0.1-2-0.4-2.4c-0.3-0.5-0.7-0.8-1.5-0.9  C150,252.1,148.8,252,147.1,252z M216.9,255.6c0-1.1-0.1-1.9-0.4-2.5c-0.2-0.6-0.7-1-1.3-1.2c-0.7-0.2-1.7-0.3-3.2-0.3  c-0.1,0-0.2-0.1-0.2-0.3s0.1-0.3,0.2-0.3l2.7,0.1c1.6,0.1,3,0.1,4.1,0.1c1,0,2.3,0,3.9-0.1l2.7-0.1c0.1,0,0.2,0.1,0.2,0.3  s-0.1,0.3-0.2,0.3c-1.4,0-2.5,0.1-3.1,0.3c-0.7,0.2-1.1,0.5-1.4,1.1c-0.2,0.5-0.3,1.3-0.3,2.5v25.9c0,1.1,0.1,2,0.3,2.5  c0.3,0.5,0.7,0.9,1.4,1.1c0.7,0.2,1.7,0.3,3.1,0.3c0.1,0,0.2,0.1,0.2,0.3s-0.1,0.3-0.2,0.3c-1.2,0-2.1,0-2.7-0.1l-3.9-0.1l-4.1,0.1  c-0.7,0-1.6,0.1-2.7,0.1c-0.1,0-0.2-0.1-0.2-0.3s0.1-0.3,0.2-0.3c1.5,0,2.5-0.1,3.2-0.3c0.7-0.2,1.1-0.5,1.3-1.1  c0.3-0.6,0.4-1.4,0.4-2.5V255.6z M193.4,267.2h25v1.2h-25V267.2z M191.8,255.5c0-1.1-0.1-1.9-0.4-2.5c-0.2-0.5-0.7-0.9-1.3-1.1  c-0.7-0.2-1.7-0.3-3.1-0.3c-0.1,0-0.1-0.1-0.1-0.3s0-0.3,0.1-0.3l2.9,0.1c1.6,0.1,2.8,0.1,3.8,0.1c1.1,0,2.4,0,4.1-0.1l2.7-0.1  c0.1,0,0.1,0.1,0.1,0.3s0,0.3-0.1,0.3c-1.4,0-2.5,0.1-3.2,0.3c-0.7,0.2-1.1,0.6-1.4,1.2c-0.2,0.5-0.3,1.3-0.3,2.5v25.8  c0,1.1,0.1,2,0.3,2.5c0.3,0.5,0.7,0.9,1.4,1.1c0.7,0.2,1.7,0.3,3.2,0.3c0.1,0,0.1,0.1,0.1,0.3s0,0.3-0.1,0.3c-1.2,0-2.1,0-2.7-0.1  l-4-0.1l-3.9,0.1c-0.7,0-1.6,0.1-2.8,0.1c-0.1,0-0.1-0.1-0.1-0.3s0-0.3,0.1-0.3c1.4,0,2.5-0.1,3.1-0.3c0.7-0.2,1.2-0.5,1.4-1.1  c0.3-0.6,0.4-1.4,0.4-2.5V255.5z M242.7,286c-0.1,0-0.1-0.1-0.1-0.3s0-0.3,0.1-0.3c1.4,0,2.4-0.1,3.1-0.3c0.7-0.2,1.1-0.5,1.3-1.1  c0.3-0.6,0.4-1.4,0.4-2.5v-25.9c0-1.1-0.1-1.9-0.4-2.5c-0.2-0.5-0.7-0.9-1.3-1.1c-0.6-0.2-1.7-0.3-3.1-0.3c-0.1,0-0.1-0.1-0.1-0.3  s0-0.3,0.1-0.3h22.5c0.3,0,0.5,0.2,0.5,0.5l0.1,6.9c0,0.1-0.1,0.2-0.3,0.2c-0.2,0-0.3-0.1-0.3-0.2c-0.1-2-0.7-3.5-1.8-4.6  c-1.1-1.1-2.5-1.7-4.3-1.7h-3.4c-1.3,0-2.3,0.1-2.9,0.3c-0.6,0.2-1.1,0.5-1.3,1c-0.2,0.5-0.3,1.3-0.3,2.3v25.4c0,1,0.1,1.8,0.3,2.3  c0.3,0.5,0.7,0.8,1.3,1c0.6,0.2,1.5,0.3,2.8,0.3h4.5c1.8,0,3.3-0.6,4.5-1.9c1.2-1.3,2-3,2.4-5.3c0-0.1,0.1-0.1,0.2-0.1  c0.1,0,0.2,0,0.3,0.1c0.1,0,0.2,0.1,0.2,0.1c-0.3,2.4-0.5,4.8-0.5,7.4c0,0.3-0.1,0.5-0.2,0.7c-0.1,0.1-0.3,0.2-0.7,0.2H242.7z   M263,273c0-1.6-0.4-2.8-1.2-3.5c-0.8-0.7-2.1-1.1-4-1.1h-8.4v-1.2h8.6c1.8,0,3.1-0.3,3.8-0.9c0.8-0.6,1.2-1.6,1.2-3  c0-0.1,0.1-0.1,0.3-0.1s0.3,0,0.3,0.1l-0.1,4.5c0,1.1,0,1.9,0.1,2.5l0.1,2.7c0,0.1-0.1,0.1-0.3,0.1S263,273,263,273z M293.8,252  c-2.3,0-4.1,0.6-5.3,1.8c-1.2,1.2-2,3.2-2.5,6.1c0,0.1-0.1,0.1-0.3,0.1c-0.2,0-0.3,0-0.3-0.1c0.1-1.3,0.3-3.1,0.5-5.3  c0.2-2.2,0.3-3.8,0.3-4.9c0-0.2,0.1-0.3,0.3-0.3c0.2,0,0.3,0.1,0.3,0.3c0,0.8,1,1.2,3,1.2c3.2,0.1,7,0.2,11.3,0.2c2.2,0,4.5,0,7-0.1  l3.8-0.1c1.3,0,2.3-0.1,3-0.3c0.7-0.2,1.1-0.6,1.3-1.1c0-0.1,0.1-0.2,0.3-0.2c0.2,0,0.3,0.1,0.3,0.2c-0.1,1.1-0.2,2.7-0.3,4.9  c-0.1,2.2-0.2,4-0.2,5.4c0,0.1-0.1,0.1-0.3,0.1s-0.3,0-0.3-0.1c-0.1-2.9-0.7-4.9-1.8-6.1c-1.1-1.2-2.9-1.8-5.4-1.8  c-1.7,0-2.9,0.1-3.6,0.2c-0.7,0.1-1.2,0.5-1.5,1c-0.3,0.5-0.4,1.3-0.4,2.5v25.8c0,1.2,0.1,2,0.4,2.5c0.3,0.5,0.8,0.9,1.5,1.1  c0.7,0.2,1.9,0.3,3.5,0.3c0.1,0,0.2,0.1,0.2,0.3s-0.1,0.3-0.2,0.3c-1.2,0-2.2,0-3-0.1l-4.4-0.1l-4.2,0.1c-0.7,0-1.8,0.1-3.1,0.1  c-0.1,0-0.1-0.1-0.1-0.3s0-0.3,0.1-0.3c1.6,0,2.8-0.1,3.5-0.3c0.7-0.2,1.2-0.5,1.5-1.1c0.3-0.6,0.4-1.4,0.4-2.5v-25.9  c0-1.2-0.1-2-0.4-2.4c-0.3-0.5-0.7-0.8-1.5-0.9C296.7,252.1,295.5,252,293.8,252z M342.8,281.5c0,1.2,0.1,2,0.3,2.5  c0.2,0.5,0.7,0.9,1.3,1.1c0.7,0.2,1.7,0.3,3.1,0.3c0.1,0,0.2,0.1,0.2,0.3s-0.1,0.3-0.2,0.3c-1.1,0-2,0-2.7-0.1l-4-0.1l-3.9,0.1  c-0.7,0-1.6,0.1-2.7,0.1c-0.1,0-0.2-0.1-0.2-0.3s0.1-0.3,0.2-0.3c1.4,0,2.4-0.1,3.1-0.3c0.7-0.2,1.1-0.5,1.3-1.1  c0.3-0.6,0.4-1.4,0.4-2.5v-25.9c0-1.1-0.1-1.9-0.4-2.5c-0.2-0.5-0.7-0.9-1.3-1.1c-0.6-0.2-1.7-0.3-3.1-0.3c-0.1,0-0.2-0.1-0.2-0.3  s0.1-0.3,0.2-0.3l2.7,0.1c1.6,0.1,2.9,0.1,3.9,0.1c1.1,0,2.5,0,4-0.1l2.6-0.1c0.1,0,0.2,0.1,0.2,0.3s-0.1,0.3-0.2,0.3  c-1.4,0-2.4,0.1-3.1,0.3s-1.1,0.6-1.3,1.2c-0.2,0.5-0.3,1.3-0.3,2.5V281.5z M386.1,250.4c2.4,0,4.3,0.2,5.9,0.5  c1.6,0.3,3.2,0.9,4.8,1.7c0.3,0.1,0.4,0.3,0.4,0.4c0,0.1,0.1,0.4,0.2,0.8l0.7,6.7c0,0.1-0.1,0.2-0.3,0.2c-0.2,0-0.3-0.1-0.3-0.2  c-1.7-6.2-5.6-9.4-11.5-9.4c-3.1,0-5.9,0.7-8.3,2.1c-2.4,1.4-4.2,3.4-5.5,5.9c-1.3,2.5-2,5.5-2,8.9c0,3.2,0.7,6.2,2.2,9  c1.5,2.7,3.4,4.8,5.8,6.4c2.5,1.6,5.1,2.4,8,2.4c3.1,0,5.5-0.7,7.4-2.2c1.9-1.5,3.4-3.8,4.4-6.8c0-0.1,0.1-0.1,0.3-0.1  c0.3,0,0.4,0.1,0.4,0.2L398,283c0,0.4-0.1,0.7-0.2,0.8c-0.1,0.1-0.2,0.2-0.4,0.4c-1.9,0.9-3.8,1.6-5.5,2c-1.7,0.4-3.6,0.6-5.8,0.6  c-3.9,0-7.4-0.8-10.5-2.3c-3.1-1.6-5.5-3.8-7.2-6.6c-1.7-2.8-2.6-6-2.6-9.6c0-3.5,0.9-6.6,2.6-9.3c1.8-2.7,4.2-4.8,7.2-6.3  C378.8,251.1,382.3,250.4,386.1,250.4z M422.5,257.6c0,1.5,0.4,2.7,1.1,3.8c0.7,1.1,1.6,2,2.6,2.7c1,0.7,2.4,1.6,4.3,2.7  c1.9,1.2,3.5,2.1,4.5,2.9c1.1,0.8,2,1.8,2.7,3c0.8,1.2,1.2,2.6,1.2,4.3c0,1.8-0.4,3.4-1.3,4.9c-0.9,1.5-2.2,2.6-4,3.5  c-1.7,0.8-3.8,1.2-6.2,1.2c-2.9,0-5.5-0.7-7.9-2c-0.2-0.1-0.3-0.2-0.4-0.4c0-0.1-0.1-0.4-0.1-0.7l-0.7-7.6c0-0.1,0-0.2,0.2-0.3  c0.2,0,0.4,0,0.4,0.2c0.6,2.7,1.7,5,3.3,6.9c1.6,1.9,3.8,2.9,6.5,2.9c1.9,0,3.4-0.5,4.7-1.5c1.3-1,2-2.7,2-4.9  c0-1.7-0.4-3.1-1.1-4.4c-0.7-1.2-1.7-2.2-2.7-3c-1-0.8-2.5-1.8-4.3-2.9c-1.8-1.1-3.2-2-4.3-2.8c-1-0.8-1.9-1.8-2.6-3  c-0.7-1.2-1.1-2.6-1.1-4.2c0-1.9,0.5-3.5,1.5-4.8c1-1.3,2.3-2.3,3.9-3c1.6-0.7,3.3-1,5.1-1c2.2,0,4.4,0.4,6.6,1.3  c0.6,0.2,0.8,0.5,0.8,1l0.4,6.4c0,0.2-0.1,0.3-0.3,0.3c-0.2,0-0.3-0.1-0.3-0.2c-0.3-1.9-1-3.7-2.4-5.4c-1.3-1.7-3.2-2.5-5.7-2.5  c-2.1,0-3.7,0.6-4.7,1.8C423,254.3,422.5,255.8,422.5,257.6z"></path><path class="st1" d="M245.5,110v-0.6h43.3c9.2,0,17.1-2.1,23.5-6.4c6.4-4.2,11.4-10.2,14.7-17.9c3.4-7.8,5.1-16.9,5.1-27.4  c0-10.5-1.7-19.7-5.1-27.6c-3.4-8-8.3-14.2-14.7-18.6c-6.5-4.4-14.3-6.6-23.5-6.6l-63.7-0.3l63.7-0.3c14.5,0,27.2,1.9,38,5.6  c10.9,3.7,19.3,9.4,25.3,17.3c6,7.8,9,18,9,30.5s-2.8,22.6-8.4,30.3c-5.6,7.6-13.8,13.2-24.5,16.7c-10.7,3.5-23.8,5.2-39.3,5.2  H245.5z M225.1,220.6V4.6h27.6v216H225.1z M356.7,222c-8.4,0-12.1-1.2-16.8-4.4c-4.6-3.2-8-7.4-10.1-12.7c-2.1-5.4-3.5-11.4-4-18  c-0.5-6.6-0.8-13.5-0.9-20.6c-0.1-7.1-0.5-14-1.2-20.6c-0.7-6.6-2.2-12.6-4.5-17.9c-2.3-5.4-6-9.7-11.1-12.9  c-5-3.2-11.9-4.8-20.8-4.8h-41.9v-0.6h47.7c14.2,0,25.4,2,33.6,6.1c8.4,4,14.6,9.4,18.6,16c4.1,6.5,6.9,13.8,8.2,21.8  c1.3,7.9,2,15.8,2,23.8c0.1,7.9,0.2,15.2,0.4,21.8c0.2,6.5,1,18,1,21.9c0,0,0,0.7,0,1.1H356.7z"></path><polygon class="st1" points="183.1,150.7 184.3,150.2 198.5,150.2 198.5,150.7 "></polygon><polygon class="st1" points="159.4,0 235.8,220.3 252.4,220.2 252.4,220.3 204.2,220.9 204.2,220.3 145.9,39.6 82.9,220.3 82,220.3   158.8,0 "></polygon></svg>